<?xml version="1.0" encoding="utf-8"?>
<!-- Generator: Adobe Illustrator 23.0.5, SVG Export Plug-In . SVG Version: 6.00 Build 0)  -->
<svg version="1.1" id="Layer_1" xmlns="http://www.w3.org/2000/svg" xmlns:xlink="http://www.w3.org/1999/xlink" x="0px" y="0px"
	 width="77.4px" height="12px" viewBox="0 0 77.4 12" style="enable-background:new 0 0 77.4 12;" xml:space="preserve">
<style type="text/css">
	.st0{fill-rule:evenodd;clip-rule:evenodd;fill:#FFFFFF;}
	.st1{fill-rule:evenodd;clip-rule:evenodd;fill:#73C53F;}
</style>
<g>
	<path class="st0" d="M42.8,10.2c-0.7,0-1.2-0.2-1.6-0.6c-0.4-0.4-0.6-0.9-0.6-1.5c0-0.6,0.1-1.1,0.4-1.6c0.2-0.5,0.6-0.8,1-1.1
		C42.4,5.1,42.9,5,43.5,5c0.7,0,1.2,0.2,1.6,0.6c0.4,0.4,0.6,0.9,0.6,1.5c0,0.6-0.1,1.1-0.4,1.6c-0.3,0.5-0.6,0.8-1,1.1
		C43.8,10.1,43.3,10.2,42.8,10.2z M42.7,11.9c1,0,1.8-0.2,2.6-0.6c0.8-0.4,1.4-1,1.8-1.7c0.4-0.7,0.6-1.6,0.6-2.5
		c0-0.7-0.2-1.4-0.5-1.9c-0.3-0.6-0.8-1-1.4-1.3c-0.6-0.3-1.3-0.5-2.1-0.5c-1,0-1.8,0.2-2.6,0.6c-0.8,0.4-1.4,1-1.8,1.7
		c-0.4,0.7-0.6,1.6-0.6,2.5c0,0.7,0.2,1.4,0.5,1.9c0.3,0.6,0.8,1,1.4,1.3C41.1,11.7,41.8,11.9,42.7,11.9z"/>
	<path class="st0" d="M51.4,4.5l0.2-1.1h-1.9l-1.7,8.5h2l0.8-4.2c0.3-1.7,1.3-2.5,2.9-2.5c0.1,0,0.3,0,0.5,0l0.4-1.9
		c-0.7,0-1.4,0.1-1.9,0.3C52.2,3.8,51.7,4.1,51.4,4.5L51.4,4.5z"/>
	<path class="st0" d="M59.2,4.9c0.6,0,1.1,0.1,1.5,0.4C61,5.6,61.2,6,61.3,6.6l-4.9,0.9c0.1-0.8,0.4-1.4,0.9-1.9
		C57.8,5.1,58.4,4.9,59.2,4.9z M59.2,3.3c-0.9,0-1.8,0.2-2.5,0.6C56,4.4,55.4,5,55,5.7c-0.4,0.7-0.6,1.6-0.6,2.5
		c0,0.7,0.2,1.4,0.5,1.9c0.3,0.6,0.8,1,1.4,1.3c0.6,0.3,1.4,0.5,2.2,0.5c0.7,0,1.3-0.1,1.9-0.3c0.6-0.2,1.1-0.5,1.5-0.9l-0.8-1.4
		c-0.3,0.3-0.6,0.5-1.1,0.6c-0.4,0.1-0.9,0.2-1.4,0.2c-1.4,0-2.1-0.5-2.4-1.5l6.7-1.2c0-0.1,0-0.2,0-0.4c0-1.2-0.4-2.2-1.1-2.8
		C61.3,3.7,60.4,3.3,59.2,3.3z"/>
	<path class="st0" d="M67,11.9c1.2,0,2.2-0.2,2.9-0.7C70.7,10.7,71,10,71,9.1c0-0.5-0.1-0.9-0.4-1.2c-0.3-0.3-0.6-0.5-1-0.6
		c-0.4-0.1-0.9-0.2-1.4-0.4c-0.6-0.1-1-0.2-1.3-0.4c-0.3-0.1-0.4-0.3-0.4-0.6c0-0.3,0.2-0.5,0.5-0.7C67.3,5.1,67.8,5,68.4,5
		c0.4,0,0.9,0.1,1.3,0.2c0.4,0.1,0.8,0.3,1.2,0.5l0.7-1.6c-0.3-0.2-0.8-0.4-1.3-0.6c-0.5-0.1-1.1-0.2-1.7-0.2
		c-1.2,0-2.2,0.3-2.9,0.8c-0.7,0.5-1.1,1.2-1.1,2c0,0.5,0.1,0.9,0.4,1.2c0.3,0.3,0.6,0.5,1,0.6c0.4,0.1,0.9,0.3,1.5,0.4
		c0.6,0.1,1,0.2,1.3,0.4C69,8.8,69.1,9,69.1,9.2c0,0.3-0.2,0.6-0.5,0.7c-0.3,0.2-0.8,0.3-1.4,0.3c-0.6,0-1.1-0.1-1.6-0.2
		c-0.5-0.1-1-0.3-1.3-0.6l-0.8,1.5c0.4,0.3,0.9,0.5,1.5,0.7C65.6,11.8,66.3,11.9,67,11.9z"/>
	<path class="st0" d="M73.6,1.4L72.5,7c0.4-0.5,0.9-0.9,1.4-1.2c0-0.4,0.2-1.5,1.2-1.9l0.1-0.7l0.4-1.9H73.6z M72.1,9
		c0,0.2,0,0.4,0,0.6c0,0.7,0.2,1.3,0.7,1.7c0.4,0.4,1,0.6,1.7,0.6c0.8,0,1.5-0.2,2-0.5l-0.3-1.5c-0.3,0.2-0.7,0.3-1.1,0.3
		c-0.7,0-1-0.3-1-1c0-0.1,0-0.2,0-0.4l0.4-2.1c0.2-0.4,0.4-0.9,0.9-1.2C74.3,5.7,72.5,7.5,72.1,9z"/>
	<path class="st0" d="M26.2,10.3c-0.7,0-1.2-0.2-1.6-0.6C24.2,9.4,24,8.9,24,8.2c0-0.6,0.1-1.1,0.4-1.6c0.2-0.5,0.6-0.8,1-1.1
		c0.4-0.3,0.9-0.4,1.5-0.4c0.7,0,1.2,0.2,1.6,0.6c0.4,0.4,0.6,0.9,0.6,1.5c0,0.6-0.1,1.1-0.4,1.6c-0.3,0.5-0.6,0.8-1,1.1
		C27.2,10.2,26.7,10.3,26.2,10.3z M27.4,3.5c-1,0-1.9,0.3-2.6,0.9L25.5,0h-2l-2.3,11.9h1.9l0.3-1.3c0.3,0.5,0.6,0.8,1.1,1
		c0.5,0.2,1.1,0.4,1.8,0.4c0.9,0,1.7-0.2,2.4-0.6c0.7-0.4,1.3-1,1.7-1.8C30.8,8.9,31,8,31,7.1c0-0.7-0.2-1.4-0.5-2
		c-0.3-0.6-0.8-1-1.3-1.3C28.7,3.6,28,3.5,27.4,3.5z"/>
	<path class="st0" d="M16.9,4.9c0.6,0,1.1,0.1,1.5,0.4C18.8,5.6,19,6,19.1,6.6l-4.9,0.9c0.1-0.8,0.4-1.4,0.9-1.9
		C15.6,5.1,16.2,4.9,16.9,4.9z M17,3.3c-0.9,0-1.8,0.2-2.5,0.6c-0.7,0.4-1.3,1-1.7,1.7c-0.4,0.7-0.6,1.6-0.6,2.5
		c0,0.7,0.2,1.4,0.5,1.9c0.3,0.6,0.8,1,1.4,1.3c0.6,0.3,1.4,0.5,2.2,0.5c0.7,0,1.3-0.1,1.9-0.3c0.6-0.2,1.1-0.5,1.5-0.9l-0.8-1.4
		c-0.3,0.3-0.6,0.5-1.1,0.6c-0.4,0.1-0.9,0.2-1.4,0.2c-1.4,0-2.1-0.5-2.4-1.5l6.7-1.2c0-0.1,0-0.2,0-0.4c0-1.2-0.4-2.2-1.1-2.8
		C19.1,3.7,18.2,3.3,17,3.3z"/>
	<path class="st0" d="M5.9,9.2C5.9,10.1,6,11,6.1,11.9h1.6c0.5-0.6,1-1.3,1.4-2c0.5-0.7,0.9-1.6,1.3-2.3c0.4-0.7,0.8-1.4,1.1-2.2
		c0.3-0.7,0.6-1.4,0.8-2.1h-2c-0.1,0.4-0.3,0.9-0.5,1.5C9.5,5.4,9.3,5.9,9,6.5C8.7,7,8.5,7.6,8.2,8.1c-0.3,0.5-0.6,1-0.8,1.4
		C7.3,9,7.2,8.4,7.2,7.9c0-0.5-0.1-1.1-0.1-1.6c0-0.5,0-1,0-1.5c0-0.5,0-1,0-1.4H5.4C5.2,3.9,5,4.4,4.8,4.9C4.5,5.4,4.3,5.9,4,6.4
		C3.7,7,3.5,7.5,3.2,8C2.9,8.5,2.6,9,2.2,9.5C2.2,9,2.1,8.5,2.1,8C2.1,7.5,2,6.9,2,6.4c0-0.5,0-1-0.1-1.5c0-0.5,0-1,0-1.5H0
		C0,4.2,0.1,5,0.1,5.8c0.1,0.8,0.1,1.5,0.2,2.2c0.1,0.7,0.1,1.5,0.2,2.1c0.1,0.6,0.2,1.2,0.3,1.7h1.7c0.2-0.3,0.5-0.7,0.8-1.1
		c0.3-0.4,0.6-1,0.8-1.4c0.3-0.5,0.6-1,0.8-1.4c0.3-0.5,0.6-1,0.8-1.4C5.7,7.3,5.8,8.2,5.9,9.2L5.9,9.2z"/>
	<path class="st0" d="M35.5,3.7c0.1-0.3,0.2-0.6,0.3-0.9c0.1-0.2,0.2-0.5,0.4-0.6c0.2-0.2,0.4-0.3,0.6-0.4c0.2-0.1,0.5-0.1,0.9-0.1
		c0.3,0,0.6,0,0.9,0.1C38.8,1.8,39,1.9,39.1,2l0.8-1.5c-0.2-0.1-0.5-0.2-0.8-0.3C38.7,0,38.3,0,37.8,0c-0.6,0-1.2,0.1-1.7,0.2
		c-0.5,0.2-0.9,0.4-1.2,0.7c-0.3,0.3-0.6,0.7-0.9,1.1c-0.2,0.5-0.4,1-0.6,1.5L32,10.1c-0.1,0.5-0.2,0.9-0.3,1.3
		c-0.1,0.2-0.1,0.4-0.2,0.5h2c0.1-0.3,0.2-0.6,0.3-1c0.1-0.5,0.3-1.1,0.4-1.7L35,6h2.9l0.4-1.6h-2.9L35.5,3.7z"/>
	<path class="st1" d="M74.3,6.1c1-0.5,1-0.2,2.1-0.6c1.4-0.4,0.9-2.1,0.9-2.1c-0.4,0.7-0.7,0.6-1.9,0.9c-0.8,0.2-1,0.8-1.1,1.3
		c1.2-0.8,2-0.8,2-0.8C75.3,5.2,74.3,6.1,74.3,6.1z"/>
</g>
</svg>
